# AST/ASF file generated using VICON BodyLanguage
# -----------------------------------------------
:version 1.10
:name VICON
:units
  mass 1.0
  length 0.45
  angle deg
:documentation
   .ast/.asf automatically generated from VICON data using
   VICON BodyBuilder and BodyLanguage model FoxedUp or BRILLIANT.MOD
:root
   order TX TY TZ RX RY RZ
   axis XYZ
   position 0 0 0  
   orientation 0 0 0 
:bonedata
  begin
     id 1 
     name lhipjoint
     direction 0.722297 -0.617336 0.311742 
     length 2.6635 
     axis 0 0 0  XYZ
  end
  begin
     id 2 
     name lfemur
     direction 0.34202 -0.939693 0  
     length 7.39349  
     axis 0 0 20  XYZ
    dof rx ry rz
    limits (-160.0 20.0)
           (-70.0 70.0)
           (-60.0 70.0)
  end
  begin
     id 3 
     name ltibia
     direction 0.34202 -0.939693 0   
     length 7.36294   
     axis 0 0 20   XYZ
    dof rx
    limits (-10.0 170.0)
  end
  begin
     id 4 
     name lfoot
     direction 0.104879 -0.288152 0.951824   
     length 2.16981   
     axis -90 7.62852e-016 20   XYZ
    dof rx rz
    limits (-45.0 90.0)
           (-70.0 20.0)
  end
  begin
     id 5 
     name ltoes
     direction 1.53586e-011 -4.21895e-011 1   
     length 1.08218   
     axis -90 7.62852e-016 20   XYZ
    dof rx
    limits (-90.0 20.0)
  end
  begin
     id 6 
     name rhipjoint
     direction -0.75102 -0.589393 0.297631   
     length 2.78977  
     axis 0 0 0  XYZ 
  end
  begin
     id 7 
     name rfemur
     direction -0.34202 -0.939693 0   
     length 7.46076   
     axis 0 0 -20   XYZ
    dof rx ry rz
    limits (-160.0 20.0)
           (-70.0 70.0)
           (-70.0 60.0)
  end
  begin
     id 8 
     name rtibia
     direction -0.34202 -0.939693 0   
     length 7.31726   
     axis 0 0 -20   XYZ
    dof rx
    limits (-10.0 170.0)
 end
 begin
     id 9 
     name rfoot
     direction -0.107991 -0.296704 0.948844   
     length 2.09388  
     axis -90 -7.62852e-016 -20   XYZ
    dof rx rz
    limits (-45.0 90.0)
           (-20.0 70.0)
  end
  begin
     id 10 
     name rtoes
     direction -1.53559e-011 -4.21911e-011 1   
     length 1.04433   
     axis -90 -7.62852e-016 -20   XYZ
    dof rx
    limits (-90.0 20.0)
  end
  begin
     id 11 
     name lowerback
     direction 0.0165164 0.98272 0.184358   
     length 1.71896   
     axis 0 0 0   XYZ
    dof rx ry rz
    limits (-20.0 45.0)
           (-30.0 30.0)
           (-30.0 30.0)
  end
  begin
     id 12 
     name upperback
     direction -0.00887249 0.992297 0.123566   
     length 1.71504   
     axis 0 0 0   XYZ
    dof rx ry rz
    limits (-20.0 45.0)
           (-30.0 30.0)
           (-30.0 30.0)
  end
  begin
     id 13 
     name thorax
     direction -0.0157026 0.998908 0.0440032   
     length 1.77022   
     axis 0 0 0   XYZ
    dof rx ry rz
    limits (-20.0 45.0)
           (-30.0 30.0)
           (-30.0 30.0)
  end
  begin
     id 14 
     name lowerneck
     direction -0.0238856 0.998137 0.0561411   
     length 1.89341   
     axis 0 0 0   XYZ
    dof rx ry rz
    limits (-20.0 45.0)
           (-30.0 30.0)
           (-30.0 30.0)
  end
  begin
     id 15 
     name upperneck
     direction 0.0276574 0.952253 -0.304056   
     length 1.86999   
     axis 0 0 0   XYZ
    dof rx ry rz
    limits (-20.0 45.0)
           (-30.0 30.0)
           (-30.0 30.0)
  end
  begin
     id 16
     name head
     direction 0.00800083 0.994258 -0.106712  
     length 1.91492  
     axis 0 0 0   XYZ
    dof rx ry rz
    limits (-20.0 45.0)
           (-30.0 30.0)
           (-30.0 30.0)
  end
  begin
     id 17 
     name lclavicle
     direction 0.97203 0.225407 0.06595  
     length 3.34889  
     axis 0 0 0   XYZ
    dof ry rz
    limits (-20.0 10.0)
           (0.0 20.0)
  end
  begin
     id 18 
     name lhumerus
     direction 1 -4.48973e-011 2.20267e-027   
     length 4.85645   
     axis 180 -30 -90   XYZ
    dof rx ry rz
    limits (-60.0 90.0)
           (-90.0 90.0)
           (-90.0 90.0)
  end
  begin
     id 19
     name lradius
     direction 1 -4.4897e-011 4.60472e-027   
     length 2.79874   
     axis 180 -30 -90   XYZ
    dof rx
    limits (-10.0 170.0)
  end
  begin
     id 20
     name lwrist
     direction 1 -4.48952e-011 1.14928e-026   
     length 1.39937   
     axis -6.29373e-015 90 90   XYZ
    dof ry
    limits (-180.0 0.0)
 end
  begin
     id 21 
     name lhand
     direction 1 -4.48967e-011 2.29886e-026   
     length 0.573398   
     axis -1.46689e-014 90 90   XYZ
    dof rx rz
    limits (-90.0 90.0)
           (-45.0 45.0)
  end
  begin
     id 22 
     name lfingers
     direction 1 -4.48955e-011 4.59726e-026   
     length 0.462289   
     axis -2.93383e-014 90 90   XYZ
    dof rx
    limits (0.0 90.0)
  end
  begin
     id 23
     name lthumb
     direction 0.707107 -6.34866e-011 0.707107   
     length 0.663757   
     axis -90 45 5.69224e-014   XYZ
    dof rx rz
    limits (-45.0 45.0)
           (-45.0 45.0)
  end
  begin
     id 24 
     name rclavicle
     direction -0.981571 0.157346 0.108443   
     length 3.35257  
     axis 0 0 0   XYZ 
    dof ry rz
    limits (-10.0 20.0)
           (-20.0 0.0)
  end
  begin
     id 25 
     name rhumerus
     direction -1 -4.48967e-011 8.58308e-029  
     length 4.67018   
     axis 180 30 90   XYZ
    dof rx ry rz
    limits (-90.0 60.0)
           (-90.0 90.0)
           (-90.0 90.0)
  end
  begin
     id 26 
     name rradius
     direction -1 -4.48958e-011 4.52548e-027   
     length 2.65534   
     axis 180 30 90   XYZ
    dof rx
    limits (-10.0 170.0)
  end
  begin
     id 27 
     name rwrist
     direction -1 -4.48977e-011 1.14952e-026   
     length 1.32767   
     axis -6.29373e-015 -90 -90   XYZ
    dof ry
    limits (-180.0 0.0)
  end
  begin
     id 28
     name rhand
     direction -1 -4.48924e-011 2.29804e-026   
     length 0.594069   
     axis -1.46689e-014 -90 -90   XYZ
    dof rx rz
    limits (-90.0 90.0)
           (-45.0 45.0)
  end
  begin
     id 29
     name rfingers
     direction -1 -4.48998e-011 4.59888e-026   
     length 0.478954   
     axis -2.93383e-014 -90 -90   XYZ
    dof rx
    limits (0.0 90.0)
  end
  begin
     id 30
     name rthumb
     direction -0.707107 -6.34933e-011 0.707107   
     length 0.687685   
     axis -90 -45 -5.69224e-014   XYZ
    dof rx rz
    limits (-45.0 45.0)
           (-45.0 45.0)
  end
:hierarchy
  begin
    root lhipjoint rhipjoint lowerback
    lhipjoint lfemur
    lfemur ltibia
    ltibia lfoot
    lfoot ltoes
    rhipjoint rfemur
    rfemur rtibia
    rtibia rfoot
    rfoot rtoes
    lowerback upperback
    upperback thorax
    thorax lowerneck lclavicle rclavicle
    lowerneck upperneck
    upperneck head
    lclavicle lhumerus
    lhumerus lradius
    lradius lwrist
    lwrist lhand lthumb
    lhand lfingers
    rclavicle rhumerus
    rhumerus rradius
    rradius rwrist
    rwrist rhand rthumb
    rhand rfingers
  end

#!OML:ASF E:\pregnant2\Project 1\Capture day 1\Session 1\pregnant2.ASF
:FULLY-SPECIFIED
:DEGREES
96
root 7.70203 10.6518 15.7383 12.8622 -0.510652 4.13162
lowerback 5.92338 -1.18666 -4.28558
upperback -11.8886 -2.44102 -1.30975
thorax -16.554 -0.721255 1.39412
lowerneck -11.4272 -7.55614 -11.195
upperneck 24.5013 -10.6346 8.73848
head 10.8529 -5.0073 3.59429
rclavicle -1.64246e-014 1.03368e-014
rhumerus -28.6637 38.1423 -104.748
rradius 55.6543
rwrist 27.5322
rhand -9.04074 -2.09467
rfingers 7.12502
rthumb 16.9072 -31.3787
lclavicle -1.64246e-014 1.03368e-014
lhumerus -28.4544 -34.453 101.375
lradius 56.2325
lwrist -23.3388
lhand -4.53128 15.4926
lfingers 7.12502
lthumb 21.2437 44.3485
rfemur -97.6836 -7.56834 14.0264
rtibia 71.7283
rfoot 14.6226 -4.37588
rtoes 4.79998
lfemur -94.3493 1.61114 -19.4678
ltibia 65.4641
lfoot 14.366 -4.87164
ltoes -18.4543
97
root 7.70258 10.6504 15.738 12.8597 -0.491855 4.13203
lowerback 5.93622 -1.19107 -4.27154
upperback -11.8956 -2.44623 -1.30969
thorax -16.5715 -0.724915 1.3878
lowerneck -11.4236 -7.53998 -11.1738
upperneck 24.4838 -10.6097 8.72063
head 10.8403 -4.99609 3.58803
rclavicle 9.21864e-015 1.27222e-014
rhumerus -28.6757 38.1498 -104.761
rradius 55.6291
rwrist 27.5382
rhand -8.99866 -2.09098
rfingers 7.12502
rthumb 16.9477 -31.3716
lclavicle 9.21864e-015 1.27222e-014
lhumerus -28.4952 -34.4963 101.411
lradius 56.2164
lwrist -23.388
lhand -4.52198 15.493
lfingers 7.12502
lthumb 21.2526 44.3478
rfemur -97.6891 -7.58708 14.0237
rtibia 71.744
rfoot 14.6176 -4.37931
rtoes 4.81277
lfemur -94.3573 1.5935 -19.4673
ltibia 65.4627
lfoot 14.3784 -4.87331
ltoes -18.4483
98
root 7.70305 10.649 15.7375 12.8561 -0.47314 4.1344
lowerback 5.94914 -1.19432 -4.25958
upperback -11.9017 -2.45025 -1.31097
thorax -16.588 -0.727914 1.38088
lowerneck -11.4172 -7.52507 -11.1562
upperneck 24.4642 -10.587 8.7066
head 10.8271 -4.98587 3.58346
rclavicle 8.22472e-015 -4.17448e-015
rhumerus -28.6883 38.1594 -104.773
rradius 55.6064
rwrist 27.5389
rhand -8.95938 -2.09128
rfingers 7.12502
rthumb 16.9855 -31.3686
lclavicle 8.22472e-015 -4.17448e-015
lhumerus -28.5337 -34.5393 101.448
lradius 56.1995
lwrist -23.4309
lhand -4.51664 15.4925
lfingers 7.12502
lthumb 21.2578 44.3467
rfemur -97.6937 -7.60587 14.0184
rtibia 71.7593
rfoot 14.6122 -4.3848
rtoes 4.83188
lfemur -94.3619 1.57505 -19.4676
ltibia 65.4606
lfoot 14.3897 -4.87228
ltoes -18.4364
99
root 7.70347 10.6476 15.737 12.8512 -0.453903 4.13696
lowerback 5.96434 -1.19788 -4.24861
upperback -11.9066 -2.45486 -1.31167
thorax -16.6044 -0.731016 1.37534
lowerneck -11.4086 -7.51055 -11.1429
upperneck 24.4409 -10.5649 8.69669
head 10.8126 -4.97596 3.58107
rclavicle -1.92573e-014 3.57812e-015
rhumerus -28.6981 38.1711 -104.785
rradius 55.5816
rwrist 27.5365
rhand -8.92435 -2.08968
rfingers 7.12502
rthumb 17.0193 -31.3641
lclavicle -1.92573e-014 3.57812e-015
lhumerus -28.5678 -34.5742 101.483
lradius 56.1849
lwrist -23.4651
lhand -4.50739 15.4907
lfingers 7.12502
lthumb 21.2667 44.3439
rfemur -97.6969 -7.62491 14.0128
rtibia 71.7746
rfoot 14.6054 -4.39194
rtoes 4.85743
lfemur -94.3653 1.55551 -19.4672
ltibia 65.4585
lfoot 14.4005 -4.87146
ltoes -18.4224
100
root 7.70384 10.6461 15.7364 12.8463 -0.434115 4.14072
lowerback 5.97967 -1.20266 -4.24038
upperback -11.9093 -2.46137 -1.3119
thorax -16.618 -0.734705 1.37223
lowerneck -11.4073 -7.49675 -11.1296
upperneck 24.4191 -10.5431 8.68641
head 10.8002 -4.96598 3.57825
rclavicle 1.91827e-014 1.51076e-014
rhumerus -28.6991 38.1684 -104.793
rradius 55.5495
rwrist 27.5467
rhand -8.88869 -2.07801
rfingers 7.12502
rthumb 17.0536 -31.3495
lclavicle 1.91827e-014 1.51076e-014
lhumerus -28.594 -34.6031 101.512
lradius 56.1727
lwrist -23.4944
lhand -4.49502 15.4963
lfingers 7.12502
lthumb 21.2785 44.3482
rfemur -97.7011 -7.64489 14.0067
rtibia 71.7906
rfoot 14.5978 -4.39936
rtoes 4.88664
lfemur -94.3698 1.53476 -19.4668
ltibia 65.4569
lfoot 14.4131 -4.86554
ltoes -18.395
